<svg width="256" height="256" viewBox="0 0 256 256" fill="none" xmlns="http://www.w3.org/2000/svg">
<path fill-rule="evenodd" clip-rule="evenodd" d="M101.687 144.122C101.687 147.829 102.947 150.944 105.469 153.465C107.99 156.135 111.104 157.432 114.812 157.358C118.52 157.284 121.634 155.986 124.155 153.465L222.038 55.5827C224.707 53.0615 226.005 49.947 225.931 46.2394C225.857 42.5317 224.559 39.4173 222.038 36.8961C219.517 34.3748 216.402 33.0772 212.694 33.003C208.987 32.9289 205.872 34.2265 203.351 36.8961L105.469 134.778C102.947 137.3 101.687 140.414 101.687 144.122ZM53.2942 202.963C56.7794 206.448 60.9691 208.191 65.8632 208.191H190.441C195.335 208.191 199.525 206.448 203.01 202.963C206.495 199.478 208.238 195.288 208.238 190.394V130.775C208.238 125.861 204.254 121.877 199.339 121.877C194.425 121.877 190.441 125.861 190.441 130.775V190.394H65.8632V65.8162H136.383C141.298 65.8162 145.281 61.8323 145.281 56.9178C145.281 52.0034 141.298 48.0194 136.383 48.0194H65.8632C60.9691 48.0194 56.7794 49.762 53.2942 53.2472C49.809 56.7324 48.0664 60.9221 48.0664 65.8162V190.394C48.0664 195.288 49.809 199.478 53.2942 202.963Z" fill="#292C33"/>
</svg>
