<svg class="checkbox-completed-with-warnings" xmlns="http://www.w3.org/2000/svg" width="256" height="256" viewBox="0 0 256 256">
  <path fill="currentColor" d="M128 34C74.9939 34 32 76.3271 32 128.511C32 180.695 74.9404 222.97 128 222.97C181.06 222.97 224 180.643 224 128.458C224 76.2744 181.006 34 128 34ZM179.239 110.273L126.18 160.349C124.306 162.088 121.896 162.984 119.487 162.984C117.078 162.984 114.668 162.088 112.794 160.349L86.2376 135.311C82.3826 131.674 82.2755 125.665 85.9699 121.87C89.6643 118.074 95.768 117.969 99.623 121.606L119.487 140.371L165.854 96.5682C169.709 92.9311 175.813 93.0893 179.507 96.8318C183.201 100.627 183.094 106.636 179.239 110.273Z"/>
</svg>
