<svg width="46" height="46" viewBox="0 0 46 46" fill="none" xmlns="http://www.w3.org/2000/svg">
<rect x="16" y="10" width="13" height="26" fill="white"/>
<path d="M26.2693 44.6808C25.8105 45.1397 25.3038 45.4742 24.7494 45.6845C24.1949 45.8949 23.6118 46 23 46C22.3882 46 21.8051 45.8949 21.2506 45.6845C20.6962 45.4742 20.1895 45.1397 19.7307 44.6808L1.3192 26.2693C0.860349 25.8105 0.525769 25.3038 0.315461 24.7494C0.105154 24.1949 0 23.6118 0 23C0 22.3882 0.105154 21.8051 0.315461 21.2506C0.525769 20.6962 0.860349 20.1895 1.3192 19.7307L19.7307 1.3192C20.1895 0.860349 20.6962 0.525769 21.2506 0.315461C21.8051 0.105154 22.3882 0 23 0C23.6118 0 24.1949 0.105154 24.7494 0.315461C25.3038 0.525769 25.8105 0.860349 26.2693 1.3192L44.6808 19.7307C45.1397 20.1895 45.4742 20.6962 45.6845 21.2506C45.8949 21.8051 46 22.3882 46 23C46 23.6118 45.8949 24.1949 45.6845 24.7494C45.4742 25.3038 45.1397 25.8105 44.6808 26.2693L26.2693 44.6808ZM23 25.2943C23.65 25.2943 24.1949 25.0744 24.6347 24.6347C25.0744 24.1949 25.2943 23.65 25.2943 23V13.8229C25.2943 13.1729 25.0744 12.628 24.6347 12.1883C24.1949 11.7485 23.65 11.5287 23 11.5287C22.35 11.5287 21.8051 11.7485 21.3653 12.1883C20.9256 12.628 20.7057 13.1729 20.7057 13.8229V23C20.7057 23.65 20.9256 24.1949 21.3653 24.6347C21.8051 25.0744 22.35 25.2943 23 25.2943ZM23 32.1771C23.65 32.1771 24.1949 31.9572 24.6347 31.5175C25.0744 31.0777 25.2943 30.5328 25.2943 29.8828C25.2943 29.2328 25.0744 28.6879 24.6347 28.2481C24.1949 27.8084 23.65 27.5885 23 27.5885C22.35 27.5885 21.8051 27.8084 21.3653 28.2481C20.9256 28.6879 20.7057 29.2328 20.7057 29.8828C20.7057 30.5328 20.9256 31.0777 21.3653 31.5175C21.8051 31.9572 22.35 32.1771 23 32.1771Z" fill="#ff9300"/>
</svg>
