<svg xmlns="http://www.w3.org/2000/svg" width="102" height="102" viewBox="0 0 102 102" fill="none">

<path d="M47.39 70.6283C46.4729 69.7138 46.0144 68.6105 46.0144 67.3183C46.0144 66.0261 46.4729 64.9228 47.39 64.0083C48.307 63.0939 49.4135 62.6366 50.7093 62.6366C52.0052 62.6366 53.1116 63.0939 54.0287 64.0083C54.9458 64.9228 55.4043 66.0261 55.4043 67.3183C55.4043 68.6105 54.9458 69.7138 54.0287 70.6283C53.1116 71.5428 52.0052 72 50.7093 72C49.4135 72 48.307 71.5428 47.39 70.6283ZM63 40.6297C63 42.1604 62.7707 43.4626 62.3122 44.5361C61.8537 45.6096 61.116 46.8123 60.0993 48.1442L56.5108 52.8259C55.6934 53.8796 55.1252 55.0326 54.8062 56.285C54.5471 57.1995 54.1483 57.945 53.6101 58.5215C52.8923 59.2769 51.9254 59.6546 50.7093 59.6546C49.5331 59.6546 48.5662 59.2571 47.8086 58.4619C47.1906 57.8257 46.8816 56.9411 46.8816 55.8079C46.8816 54.8537 47.0411 53.969 47.36 53.154C47.679 52.319 48.2372 51.3946 49.0347 50.3807L53.4904 44.7746C54.6467 43.3234 55.2249 41.9417 55.2249 40.6297C55.2249 39.2977 54.7863 38.1944 53.9091 37.3197C53.0518 36.4251 51.9155 35.9778 50.5 35.9778C48.945 35.9778 47.7189 36.4549 46.8218 37.4092C46.2037 38.0453 45.7053 38.9896 45.3266 40.242C45.0873 40.9975 44.7285 41.6535 44.25 42.2101C43.632 42.8463 42.7249 43.1644 41.5287 43.1644C40.4522 43.1644 39.5849 42.8165 38.927 42.1207C38.309 41.4845 38 40.57 38 39.3773C38 38.3037 38.2891 37.1209 38.8672 35.8287C39.4653 34.5166 40.3226 33.3437 41.439 32.31C43.8513 30.1033 46.8417 29 50.4103 29C52.7428 29 54.8561 29.4572 56.75 30.3717C58.6439 31.2663 60.1591 32.6082 61.2955 34.3974C62.4318 36.1865 63 38.264 63 40.6297Z" fill="#D7DADD"/>
</svg>