<svg xmlns="http://www.w3.org/2000/svg" width="100" height="100" viewBox="0 0 100 100" fill="none">

<path d="M47.1871 41.7845V57.4185C47.1871 58.3177 46.9995 58.951 46.6243 59.3184C46.1998 59.7341 45.6814 59.942 45.0693 59.942C44.6151 59.942 44.2152 59.8018 43.8697 59.5214C43.5241 59.241 43.1193 58.7624 42.6553 58.0856L35.1467 47.2376V57.2155C35.1467 57.7086 35.127 58.0663 35.0875 58.2887C35.0579 58.511 34.9838 58.7431 34.8654 58.9848C34.7074 59.2749 34.4655 59.5069 34.1397 59.6809C33.8237 59.855 33.4683 59.942 33.0734 59.942C32.6784 59.942 32.3181 59.855 31.9923 59.6809C31.6763 59.5069 31.4394 59.2749 31.2814 58.9848C31.1629 58.7431 31.0839 58.511 31.0444 58.2887C31.0148 58.0663 31 57.7086 31 57.2155V41.5815C31 40.692 31.1876 40.0587 31.5628 39.6816C31.9873 39.2659 32.5057 39.058 33.1178 39.058C33.572 39.058 33.9718 39.1982 34.3174 39.4786C34.6629 39.759 35.0727 40.2376 35.5466 40.9144L43.0403 51.7624V41.7845C43.0403 41.2914 43.0552 40.9337 43.0848 40.7113C43.1243 40.489 43.2033 40.2569 43.3217 40.0152C43.4797 39.7251 43.7167 39.4931 44.0326 39.3191C44.3584 39.145 44.7188 39.058 45.1137 39.058C45.5086 39.058 45.8641 39.145 46.18 39.3191C46.5058 39.4931 46.7477 39.7251 46.9057 40.0152C47.0242 40.2569 47.0982 40.489 47.1278 40.7113C47.1673 40.9337 47.1871 41.2914 47.1871 41.7845Z" fill="white"/>
<path d="M64.8378 57.8246C63.3765 59.2749 61.4908 60 59.1804 60C56.8701 60 54.9843 59.2749 53.5231 57.8246C53.1084 57.4185 52.7629 56.9834 52.4864 56.5193C52.2199 56.0552 52.0076 55.6105 51.8496 55.1851C51.7015 54.75 51.588 54.1941 51.509 53.5173C51.4399 52.8405 51.3954 52.241 51.3757 51.7189C51.3658 51.1872 51.3609 50.4475 51.3609 49.5C51.3609 48.5525 51.3658 47.8177 51.3757 47.2956C51.3954 46.7638 51.4399 46.1595 51.509 45.4827C51.588 44.8059 51.7015 44.2548 51.8496 43.8294C52.0076 43.3943 52.2199 42.9448 52.4864 42.4807C52.7629 42.0166 53.1084 41.5815 53.5231 41.1754C54.9843 39.7251 56.8701 39 59.1804 39C61.4908 39 63.3765 39.7251 64.8378 41.1754C65.2524 41.5815 65.5931 42.0166 65.8596 42.4807C66.1361 42.9448 66.3484 43.3943 66.4965 43.8294C66.6544 44.2548 66.768 44.8059 66.8371 45.4827C66.9161 46.1595 66.9605 46.7638 66.9704 47.2956C66.9901 47.8177 67 48.5525 67 49.5C67 50.4475 66.9901 51.1872 66.9704 51.7189C66.9605 52.241 66.9161 52.8405 66.8371 53.5173C66.768 54.1941 66.6544 54.75 66.4965 55.1851C66.3484 55.6105 66.1361 56.0552 65.8596 56.5193C65.5931 56.9834 65.2524 57.4185 64.8378 57.8246ZM61.8314 43.6989C61.1798 42.9641 60.2961 42.5967 59.1804 42.5967C58.0648 42.5967 57.1811 42.9641 56.5295 43.6989C56.1247 44.1436 55.8532 44.7431 55.715 45.4972C55.5767 46.2417 55.5076 47.576 55.5076 49.5C55.5076 51.424 55.5767 52.7583 55.715 53.5028C55.8532 54.2472 56.1247 54.8418 56.5295 55.2866C57.2009 56.0311 58.0845 56.4033 59.1804 56.4033C60.2764 56.4033 61.16 56.0311 61.8314 55.2866C62.2362 54.8418 62.5077 54.2472 62.6459 53.5028C62.7841 52.7583 62.8533 51.424 62.8533 49.5C62.8533 47.576 62.7841 46.2417 62.6459 45.4972C62.5077 44.7431 62.2362 44.1436 61.8314 43.6989Z" fill="white"/>
</svg>