<svg xmlns="http://www.w3.org/2000/svg" width="100" height="100" viewBox="0 0 100 100" fill="none">

<path d="M32.3761 60.6809C32.0626 60.855 31.71 60.942 31.3183 60.942C30.9265 60.942 30.569 60.855 30.2458 60.6809C29.9324 60.5069 29.6973 60.2749 29.5406 59.9848C29.423 59.7431 29.3447 59.511 29.3055 59.2887C29.2761 59.0663 29.2614 58.7086 29.2614 58.2155V52.7334L24.5307 43.4227C24.3153 42.9779 24.1683 42.6588 24.09 42.4655C24.0214 42.2624 23.992 42.0497 24.0018 41.8273C24.0116 41.518 24.1096 41.2279 24.2957 40.9572C24.4818 40.6768 24.7413 40.4544 25.0743 40.2901C25.3877 40.1354 25.7061 40.058 26.0293 40.058C26.3819 40.058 26.7002 40.1595 26.9842 40.3626C27.1703 40.4979 27.3221 40.6575 27.4397 40.8412C27.567 41.0152 27.7384 41.3149 27.9539 41.7403L31.3183 48.4406L34.6826 41.7403C34.8981 41.3149 35.0646 41.0152 35.1822 40.8412C35.3095 40.6575 35.4662 40.4979 35.6523 40.3626C35.9363 40.1595 36.2546 40.058 36.6072 40.058C36.9305 40.058 37.2488 40.1354 37.5622 40.2901C37.8952 40.4544 38.1548 40.6768 38.3409 40.9572C38.527 41.2279 38.6249 41.518 38.6347 41.8273C38.6445 42.0497 38.6102 42.2624 38.5318 42.4655C38.4633 42.6588 38.3213 42.9779 38.1058 43.4227L33.3751 52.7334V58.2155C33.3751 58.7086 33.3555 59.0663 33.3163 59.2887C33.2869 59.511 33.2135 59.7431 33.096 59.9848C32.9392 60.2749 32.6993 60.5069 32.3761 60.6809Z" fill="white"/>
<path d="M44.1746 60.826C43.9003 60.826 43.68 60.8211 43.5135 60.8115C43.347 60.7921 43.1364 60.7389 42.8817 60.6519C42.6369 60.5649 42.4263 60.4344 42.25 60.2604C42.0737 60.0863 41.9415 59.8785 41.8533 59.6367C41.7652 59.3854 41.7113 59.1775 41.6917 59.0131C41.6819 58.8488 41.677 58.6312 41.677 58.3605V42.6395C41.677 42.3688 41.6819 42.1512 41.6917 41.9869C41.7113 41.8225 41.7652 41.6195 41.8533 41.3778C41.9415 41.1264 42.0737 40.9137 42.25 40.7396C42.4263 40.5656 42.6369 40.4351 42.8817 40.3481C43.1364 40.261 43.347 40.2127 43.5135 40.203C43.68 40.1837 43.9003 40.174 44.1746 40.174H53.1365C53.9004 40.174 54.4342 40.2514 54.7379 40.4061C55.0023 40.5414 55.2129 40.7493 55.3696 41.0297C55.5263 41.3101 55.6047 41.6243 55.6047 41.9724C55.6047 42.3204 55.5263 42.6347 55.3696 42.9151C55.2129 43.1954 55.0023 43.4033 54.7379 43.5387C54.4342 43.6934 53.9004 43.7707 53.1365 43.7707H45.7907V48.6146H51.7261C52.49 48.6146 53.0238 48.692 53.3275 48.8467C53.5919 48.982 53.8025 49.1899 53.9592 49.4703C54.1159 49.7507 54.1943 50.0649 54.1943 50.413C54.1943 50.761 54.1159 51.0753 53.9592 51.3557C53.8025 51.636 53.5919 51.8439 53.3275 51.9793C53.0238 52.134 52.49 52.2113 51.7261 52.2113H45.7907V57.2293H53.1365C53.9004 57.2293 54.4342 57.3066 54.7379 57.4613C55.0023 57.5967 55.2129 57.8046 55.3696 58.0849C55.5263 58.3653 55.6047 58.6796 55.6047 59.0276C55.6047 59.3757 55.5263 59.6899 55.3696 59.9703C55.2129 60.2507 55.0023 60.4586 54.7379 60.5939C54.4342 60.7486 53.9004 60.826 53.1365 60.826H44.1746Z" fill="white"/>
<path d="M66.4769 52.3999L63.9793 52.0373C62.2066 51.7762 60.8549 51.201 59.9245 50.3115C58.9254 49.3543 58.4259 48.0055 58.4259 46.2652C58.4259 44.3992 59.0821 42.8909 60.3946 41.7403C61.707 40.5801 63.4798 40 65.713 40C67.4074 40 68.9843 40.3336 70.4437 41.0007C71.5602 41.5131 72.1185 42.1851 72.1185 43.0166C72.1185 43.4613 71.9618 43.8771 71.6484 44.2638C71.3252 44.6312 70.9187 44.8149 70.429 44.8149C70.0176 44.8149 69.5083 44.6602 68.901 44.3508C67.8628 43.8094 66.761 43.5387 65.5954 43.5387C64.567 43.5387 63.7737 43.7804 63.2154 44.2638C62.6571 44.7376 62.378 45.3273 62.378 46.0331C62.378 46.7196 62.5787 47.2465 62.9803 47.6139C63.4407 48.02 64.0871 48.2859 64.9196 48.4116L67.3731 48.7597C69.1851 49.0207 70.522 49.5573 71.3839 50.3695C72.4613 51.3653 73 52.8204 73 54.7348C73 56.0304 72.6523 57.1568 71.9569 58.1139C71.2713 59.0711 70.3457 59.7914 69.1802 60.2749C68.0244 60.7583 66.7071 61 65.2281 61C64.1116 61 63.1713 60.9226 62.4073 60.768C61.6434 60.6036 60.85 60.328 60.0273 59.9413C59.3025 59.6029 58.7736 59.2645 58.4406 58.9261C58.1076 58.578 57.9411 58.1285 57.9411 57.5773C57.9411 57.0649 58.1272 56.625 58.4994 56.2576C58.803 55.9579 59.185 55.808 59.6453 55.808C60.0469 55.808 60.6003 55.9917 61.3055 56.3591C62.0694 56.7555 62.7306 57.0359 63.2888 57.2003C63.8569 57.355 64.518 57.4323 65.2722 57.4323C66.4671 57.4323 67.3829 57.2051 68.0195 56.7507C68.666 56.2963 68.9892 55.6581 68.9892 54.8363C68.9892 54.0918 68.7786 53.5166 68.3574 53.1105C67.9951 52.7721 67.3682 52.5352 66.4769 52.3999Z" fill="white"/>
</svg>