<svg xmlns="http://www.w3.org/2000/svg" width="256" height="256" viewBox="0 0 256 256" fill="none">
<path fill-rule="evenodd" clip-rule="evenodd" d="M128 224C181.019 224 224 181.019 224 128C224 74.9807 181.019 32 128 32C74.9807 32 32 74.9807 32 128C32 181.019 74.9807 224 128 224ZM167.272 167.274C163.256 171.291 156.743 171.291 152.726 167.274L130.285 144.833L107.844 167.274C103.827 171.291 97.3144 171.291 93.2976 167.274C89.2808 163.257 89.2808 156.745 93.2976 152.728L115.739 130.287L93.2976 107.846C89.2808 103.829 89.2808 97.3163 93.2976 93.2995C97.3144 89.2827 103.827 89.2827 107.844 93.2995L130.285 115.741L152.726 93.2995C156.743 89.2827 163.256 89.2827 167.272 93.2995C171.289 97.3163 171.289 103.829 167.272 107.846L144.831 130.287L167.272 152.728C171.289 156.745 171.289 163.257 167.272 167.274Z" fill="#ffff"/>
</svg>