<svg width="256" height="256" viewBox="0 0 256 256" fill="none" xmlns="http://www.w3.org/2000/svg">
<path d="M224 128C224 181.019 181.019 224 128 224C74.9807 224 32 181.019 32 128C32 74.9807 74.9807 32 128 32C181.019 32 224 74.9807 224 128Z" fill="white"/>
<path fill-rule="evenodd" clip-rule="evenodd" d="M205 128C205 170.526 170.526 205 128 205C85.4741 205 51 170.526 51 128C51 85.4741 85.4741 51 128 51C170.526 51 205 85.4741 205 128ZM224 128C224 181.019 181.019 224 128 224C74.9807 224 32 181.019 32 128C32 74.9807 74.9807 32 128 32C181.019 32 224 74.9807 224 128ZM135.5 89.5C135.5 83.9772 131.023 79.5 125.5 79.5C119.977 79.5 115.5 83.9772 115.5 89.5V134C115.5 137.666 117.506 141.038 120.727 142.787L161.227 164.787C166.08 167.423 172.151 165.626 174.787 160.773C177.423 155.92 175.626 149.849 170.773 147.213L135.5 128.052V89.5Z" fill="#67C083"/>
</svg>
